<svg xmlns="http://www.w3.org/2000/svg" xmlns:xlink="http://www.w3.org/1999/xlink" contentScriptType="text/ecmascript" version="1.0" viewBox="0 0 375 375"><defs><path id="reuse-0" fill="#fff" d="M-38-38H412V412H-38z"/></defs><use xlink:href="#reuse-0"/><use xlink:href="#reuse-0"/><path fill="#cd1404" d="M-38-38H412V412H-38z"/><path fill="#38383b" d="m187.8 310.14c-56.945 0-103.43-46.48-103.43-103.59 0-56.945 46.484-103.43 103.43-103.43 57.105 0 103.43 46.484 103.43 103.43 0.15234 57.105-46.328 103.59-103.43 103.59zm0-150.07c-25.547 0-46.48 20.934-46.48 46.48 0 25.551 20.934 46.484 46.48 46.484 25.551 0 46.484-20.934 46.484-46.484 0-25.547-20.777-46.48-46.484-46.48z"/><path fill="#38383b" d="m-27 14 488 122-12 48-488-122zM-65 305l501-40 4 49-501 40z"/></svg>
