<?xml version="1.0" standalone="no"?>
<!DOCTYPE svg PUBLIC "-//W3C//DTD SVG 20010904//EN"
 "http://www.w3.org/TR/2001/REC-SVG-20010904/DTD/svg10.dtd">
<svg version="1.0" xmlns="http://www.w3.org/2000/svg"
 width="700.000000pt" height="700.000000pt" viewBox="0 0 700.000000 700.000000"
 preserveAspectRatio="xMidYMid meet">
<metadata>
Created by potrace 1.14, written by Peter Selinger 2001-2017
</metadata>
<g transform="translate(0.000000,700.000000) scale(0.100000,-0.100000)"
fill="#000000" stroke="none">
<path d="M0 6141 l0 -476 1421 -354 1420 -353 -111 -48 c-214 -94 -410 -229
-586 -404 -274 -274 -449 -597 -530 -980 -36 -168 -45 -469 -19 -648 48 -342
190 -673 402 -938 62 -76 215 -232 292 -293 55 -46 60 -52 40 -55 -33 -3
-2308 -182 -2320 -182 -5 0 -9 -184 -9 -464 l0 -464 63 5 c34 3 1608 127 3497
277 l3435 271 3 463 c2 382 0 462 -11 462 -8 0 -470 -36 -1028 -80 -558 -45
-1024 -80 -1036 -78 -19 3 -14 11 43 78 275 319 433 706 464 1131 35 479 -119
966 -423 1344 -31 38 -54 71 -53 73 3 2 1970 -486 2029 -504 16 -5 17 20 15
472 l-3 478 -2520 629 c-1386 345 -2960 738 -3497 871 l-978 243 0 -476z
m3738 -2160 c144 -42 291 -131 394 -238 379 -399 296 -1044 -173 -1336 -152
-95 -300 -132 -488 -124 -151 7 -214 22 -346 87 -177 86 -309 218 -395 395
-62 127 -80 194 -87 327 -24 438 263 810 697 903 94 21 303 13 398 -14z"/>
</g>
</svg>
